<svg xmlns="http://www.w3.org/2000/svg" version="1.1" xmlns:xlink="http://www.w3.org/1999/xlink" xmlns:svgjs="http://svgjs.dev/svgjs" viewBox="0 0 800 800"><defs><linearGradient x1="50%" y1="0%" x2="50%" y2="100%" id="ssscribble-grad"><stop stop-color="hsl(30, 100%, 50%)" stop-opacity="1" offset="0%"></stop><stop stop-color="hsl(30, 100%, 70%)" stop-opacity="1" offset="100%"></stop></linearGradient></defs><g fill="none" stroke-width="1.5" stroke="url(#ssscribble-grad)" stroke-linecap="round"><path d="M937.42 475.59C1040.84 508.45 1093.58 552.9 1084.74 606.58 1020.74 658.88 917.05 717.17 800.22 775.77 691.6 825.89 611.58 866.54 568.35 888.82 563.56 891.18 588.41 867.07 629.46 815.7 683.73 753.17 732.31 681.81 767.2 619.76 794.19 591.67 802.71 605.41 795.24 669.05 779.61 774.13 753.74 900.76 722.45 1016.72 688.71 1089.32 654.22 1095.36 621.36 1028.1 588.5 911.67 558.83 783.21 530.59 681.85 499.9 633.67 466 645.81 424.68 705.68 375.2 798.04 312.57 889.39 234.93 956.43 149.4 992.08 53.64 984.37 -43.69 940.16 -127.81 867.23 -191.62 778.39 -221.05 687.19 -212.03 594.1 -161.49 511.8 -76.95 443.06 15.78 380.64 100.77 329.73 152.08 287.47 148.24 247.8 88.84 212.22 -14.57 179.36 -135.37 146.5 -234.01 117.91 -284.96 95.61 -280.71 75.89 -220.43 67.02 -122.43 72.49 -6.49 84.28 103.33 112.46 189.56 154.9 254.88 216.29 209.43 252.52 153.52 167.04 115.48 65.78 90.52 -55.02 80.48 -171.47 75.65 -255.43 84.12 -286.29 103.07 -250.81 124.19 -162.14 152 -40.35 184.86 76.08 217.72 143.36 254.08 144 294.93 84.1 337.95 -19.17 389.26 -127.1 451.04 -208.1 518.03 -247.67 597.1 -231.94 685.79 -169.65 772.94 -73.39 858.93 36.93 932.29 142.53 981.51 236.97 999.67 308.26 978.96 356.55 926.96 384.93 846.59 398.39 754.74 405.22 680.82 403.57 639.26 405.06 647.68 414.73 711.32 423.02 816.61 442.73 937.42 475.59Q937.42 475.59 937.42 475.59" opacity="0.73"></path><path d="M903.42 582.77C1000.71 613.28 1055.21 650.1 1056.99 690.7 1009.85 729.15 923.38 767.04 817.95 798.96 710.55 822.17 619.84 831.7 556.3 822.24 523.62 799.26 519.88 756.38 536.78 697.62 572.4 640.68 612.02 587.64 646.95 553.85 681.89 555.73 704.1 596.41 712.52 677.01 716.24 785.14 708 902.76 690.29 1002.72 670.7 1060.35 644.96 1058.77 614.45 994.1 583.93 886.87 550.1 766.71 512.13 665.74 472.3 606.49 425.03 598.45 368.44 635.57 307.14 708.97 234.67 793.06 152.7 867.18 70.74 924.42 -12.68 948.39 -88.29 939.38 -145.18 902.73 -177.62 843.58 -176.71 772.95 -144.95 692.6 -81.6 614.08 3.43 543.19 86.49 473.41 155.59 413.83 190.95 364.8 177.4 317.1 116.71 277.97 19.42 247.45 -92.9 216.94 -187.65 196.49 -243.43 186.64 -253.27 178.12 -212.9 182.19 -134.55 199.09 -32.66 217.09 73.76 245.36 168.23 278.68 242.91 302.29 290.34 317.64 312.32 314.3 310.36 283.33 293.67 223.19 271.31 134.18 240.97 28.29 216.07 -83.15 200.97 -178.92 186.77 -238.42 184.47 -247.76 193.95 -200.3 204.51 -111.12 225.24 2.84 255.75 110.08 286.26 174.77 325.12 182.55 372.1 136.71 420.17 48.53 477.98 -51.71 545.06 -137.48 613.04 -195.72 688.19 -209.05 765.56 -179.17 834.94 -113.61 895.44 -24.39 937.4 72.53 955.41 171.28 944.16 257.97 901.25 327.98 838.56 384.48 759.49 425.2 679.97 454.87 623.98 475.84 600.98 493.46 622.59 512.55 690.15 529.5 791.09 552.26 903.42 582.77Q903.42 582.77 903.42 582.77" opacity="0.34"></path><path d="M869.42 626.82C960.35 654.99 1015.59 682.64 1026.41 707.91 994.92 731.14 926.17 748.16 835.17 755.32 734.82 756.04 640.92 742.67 564.5 713.69 509.86 679.09 479.97 633.05 471.05 582.17 481.89 542.33 503.01 514.99 526.75 511.37 556.31 540.27 579.7 601.64 593.57 691.95 606.45 797.42 608.41 902.84 599.61 986.26 589.87 1029.9 570.79 1021.82 542.62 960.1 514.45 861.99 478.54 750.67 435.15 652.03 390.84 584.88 337.64 559.56 275.95 574.69 213.27 626.14 143.49 695.78 70.51 766.86 3.37 833.85 -58.18 879.21 -105.94 898.84 -133.94 896.6 -137.44 870.76 -112.12 828.54 -65.03 773.12 3.59 712 83.3 651.82 153.66 588.6 206.37 531.54 226.99 483.37 205.3 435.2 144.35 396.4 53.42 368.23 -50.36 340.06 -140.44 323.85 -199.26 318.91 -220.84 313.96 -198.82 319.77 -140.69 334.18 -56.53 345.55 39.77 360.29 133.93 372.3 219.03 371.11 285.41 356.52 331.04 321.85 356.71 265.31 365.69 186.56 364.24 90.24 351.72 -10.15 338.05 -105.05 328.41 -177.16 316.28 -212.94 312.47 -203.66 318.83 -147.39 325.19 -59.63 342.13 45.96 370.3 144.08 398.47 205.81 436.53 219.63 483.29 186.86 530.04 114.31 585.09 24.93 646.04 -59.89 704.49 -129.56 764.54 -165.68 820.47 -165.25 865.34 -132.31 896.8 -71.57 908.04 5.17 899.33 92.97 866.34 179.44 810.57 257.46 745.74 329.84 674.69 389.6 611.18 437.69 573.69 479.35 567.7 513.56 600.15 543.46 669.85 571.3 765.63 598.65 869.42 626.82Q869.42 626.82 869.42 626.82" opacity="0.90"></path><path d="M835.42 592.53C947.26 628.09 949.92 662.08 849.63 653.78 761.02 641.69 670.87 618.13 589.45 584.62 520.76 552.46 470.59 517.04 438.65 485.33 423.98 469.3 422.22 469.85 427.8 493.9 442.15 544.03 456.15 618.57 465.64 711.41 477.06 809.29 480.61 900.18 474.78 967.11 468.96 997.98 453.44 984.5 427.62 926.1 401.8 837.02 366.9 735.01 324.04 640.47 281.17 568.55 230.65 529.39 174.49 524.59 120.25 553.24 63.73 603.66 9.59 663.38 -35.77 728.73 -71.09 783.53 -90.25 821.44 -92.15 845.61 -72.59 849.39 -30.79 836.09 23.73 810.22 90.72 773.98 160.41 733.04 216.13 686.94 252.73 641.89 260.17 601.55 231.99 560.25 171.76 525.8 87.42 499.98 -7.75 474.15 -92.44 458.19 -152.56 450.79 -183.43 442.43 -177.61 440.52 -139.11 441.87 -74.75 438.08 6.34 431.8 92.66 417.88 178.69 391.39 254.6 350.54 316.09 292.54 363.78 220.79 396.28 135.38 416.8 43.14 426.4 -43.45 430.4 -117.03 433.33 -164.61 431.97 -178.74 434.42 -154.29 443.38 -92.35 451.55 -7.78 467.98 88.98 493.8 178.07 519.62 236.48 553.61 255.21 594.13 234.32 633.87 177.36 678.38 101.16 724.49 22.21 766.3 -51.7 804.82 -103.09 835.02 -126.34 854.29 -123.51 858.86 -93.45 845.01 -43.58 817.36 21.96 772.06 94.45 712.92 166.4 653.48 239.71 595.54 305.79 550.1 362.63 530.53 416.49 539.41 461.81 580.23 499.46 650.32 535.78 740.25 566.71 835.42 592.53Q835.42 592.53 835.42 592.53" opacity="0.66"></path><path d="M801.46 491.74C905.88 522.3 934.07 536.72 859.15 520.38 785.59 506.77 704.95 486.06 626.01 461.42 551.94 442.66 489.57 426.87 440.87 419.9 404.8 428.89 381.21 454.64 366.91 500.26 361.53 564.03 359.93 643.83 358.36 732.65 360.24 819.04 358.25 894.04 350.16 945.08 342.72 964.56 327.76 946.83 304.29 892.11 280.82 811.95 249.95 719.59 213.12 630.73 176.94 557.11 136.23 507.88 93.67 486.31 54.57 493.32 17.51 522.38 -13.28 565.04 -35.15 619.38 -45.26 672.13 -39.95 716.52 -22.02 755.39 12.52 779.6 62.14 789.24 116.65 789.77 176.23 778.51 232.58 759.06 272.87 734.46 294.37 706.3 290.5 677.86 257.52 648.1 198.99 620.67 121.46 597.2 34.94 573.72 -43.7 555.33 -103.5 540.82 -141.1 524.99 -148.87 510.45 -128.42 494.37 -84.28 473.14 -21.56 445.75 51.1 409.05 129.63 363.23 205.47 305.33 273.45 235.69 334.22 160.54 383.53 79.96 421.97 1.18 451.92 -65.92 474.3 -116.02 492.13 -140.24 505.5 -135.87 518.45 -100.01 533.45 -35.45 547.34 44.35 565.5 131.95 588.97 212.11 612.44 266.83 640.11 289.31 670.49 278.89 699.75 236.91 729.5 175.26 756.81 106.09 779.67 34.47 795.94 -24.27 802.17 -63.6 799.9 -84.78 784.3 -82.7 754.3 -60.92 717.08 -23.19 669.07 26.29 614.99 81.22 566.75 142.04 525.08 201.41 498.14 255.69 494.89 310.25 516.01 357.86 562.66 397.44 631.5 436.61 714.91 468.26 801.42 491.73Q801.46 491.74 801.46 491.74" opacity="0.49"></path><path d="M767.07 359.15C837.65 380.28 889.4 392.55 917.47 396.76 922.53 401.3 902.6 398.6 862.08 390.39 805.45 384.55 738.58 376.27 668.36 368.95 597.1 369.13 531.27 375.84 474 393.01 424.02 423.29 384.02 467.69 352.94 526.53 328.93 595.67 310.75 673.31 295.86 752.74 284.55 824.93 273.18 883.59 259.74 919.87 247.19 929.52 230.79 908.7 209.67 858 188.55 786.65 163.7 704.18 136.4 622.35 110.01 549.87 82.95 494.49 57.64 460.09 35.93 448.36 19.32 456.51 10.77 479.48 9.29 516.56 18.96 558.1 41.25 598.14 70.84 639.25 111.62 672.02 160.88 694.54 209.11 712.48 257.03 719.91 298.17 718.18 323.21 712.79 331.11 700.91 317.9 684.58 281.68 667.11 225.65 647.31 155.07 626.19 77.23 605.06 5.23 583.61 -52.61 561.24 -94.3 537.73 -112.58 511.18 -107.59 479.97 -82.44 445.09 -39.14 402.88 16.35 352.38 81.04 297.3 148.51 234.2 213.75 165.41 277.45 97.68 334.24 31.09 382.92 -27.98 426.6 -72.95 462.92 -100.05 493.12 -103.81 519.91 -84.9 543.27 -41.55 564.76 22.76 585.24 96.43 605.75 174.61 626.87 245.97 648 296.68 668.73 321.8 688.09 320.31 706.44 292.19 721.52 245.55 731.34 188.85 737.74 124.9 736.22 66.21 725.09 19.06 708.97 -17.78 682.51 -37.13 646.5 -39.73 608.95 -29.22 566.52 -5.6 523.83 26.77 490.33 66.65 465.97 109.72 456.3 152.17 466.8 196.99 497.11 238.12 546.95 273.42 612.95 309.05 689.23 338.03 767.07 359.15Q767.07 359.15 767.07 359.15" opacity="0.07"></path><path d="M733.45 240.82C796.77 259.6 845.41 272.62 875.72 280.72 888.52 289.53 881.13 294.84 856.08 298.48 816.5 305.15 765.64 313.16 708.54 325.12 646.79 343.74 585.61 369.9 528.37 405.48 473.72 449.73 425.61 504.05 384.54 567.03 347.78 633.77 316.99 703.07 291.08 769.25 267.9 825.83 247.4 868.63 228.36 891.69 210.11 893.2 191.81 870.42 173.03 824.08 154.26 761.39 135.89 688.94 118.72 615.27 102.35 546.5 88.69 488.8 79.33 445.98 72.63 414.69 103.08 443 143.7 483.19 176.33 516.06 215.24 546.06 257.44 570.48 338.24 613.83 278.99 602.79 189.45 577.27 120.35 558.49 55.43 535.32 0.79 507.89 -42.74 479.8 -68.65 446.29 -76.28 407.13 -67.94 366.33 -43.43 319.14 -6.52 266.32 40.52 212.97 93.66 156 148.7 98.53 206.12 46.12 260.95 -0.93 311.02 -37.75 359.48 -60.97 402.25 -67.76 439.1 -55.26 474.11 -26.2 504.32 20.79 530.16 82.32 555.35 148.74 577.34 217.39 596.12 280.08 622.24 339.71 651.36 326.87 650.87 267.99 646.56 215.58 634.71 163.12 615.2 115.93 594.06 72.5 566.2 40.45 533.38 20.8 502.96 9.83 472.08 10.64 444.58 20.96 427.22 37.94 419.54 60.85 424.96 86.72 446.34 115.62 482.94 144.47 533.71 171.08 595.59 198.39 664.31 222.04 733.41 240.81Q733.45 240.82 733.45 240.82" opacity="0.72"></path><path d="M699.41 177.39C802.83 210.25 851.56 237.89 840.71 267.57 782.49 307.26 690.93 365.74 592.89 450.58 491.82 552.01 406.34 670.53 341.68 779.26 282.88 848.9 237.77 857.35 204.9 790.07 172.04 673.63 154.55 544.7 156.39 442.74 164.11 383.92 198.31 371.02 256.31 387.22 339.63 448.08 357.85 502.64 223.41 466.99 102.61 434.13 9.35 377.09 -34.33 300.88 -32.02 224.97 17.95 135.45 93.1 50.64 185.34 -8.63 274.78 -30.58 347.85 4.14 419.35 82.02 473.16 197.63 506.02 314.07 538.88 381.35 547.69 386.22 533.13 340.67 517.01 256.02 478.85 172.36 429.68 113.99 397.61 72.23 382.48 65.03 404.25 82.29 472.03 109.55 578.61 144.53 699.41 177.39Q699.41 177.39 699.41 177.39" opacity="0.84"></path><path d="M665.46 190.83C756.37 219 807.81 255.7 814.96 302.94 786.26 355.95 726.38 427.61 653.61 516.3 570.9 607.89 493.64 703.18 431.18 780.7 370.1 823.42 323.97 817.82 295.8 756.11 267.64 658 260.1 546.41 272.37 449.01 286.01 376.7 319.32 336.8 365.11 322.99 400.96 332.19 430.97 347.53 439.02 355.33 411.22 367.19 348.37 361.73 257.46 333.56 153.67 305.39 68.43 257.19 17.7 196.52 -2.32 139.9 15.62 80.61 58.72 34.5 119.73 11.38 186.64 21.4 246.1 73.06 307.68 149.8 355.6 249.97 383.76 348.08 411.94 409.81 417.69 426.83 404.92 404.77 394.28 347.89 371.33 282.48 347.23 227.8 341.04 176.02 352.96 148.33 393.63 144.12 465 145.69 561.64 162.66 665.42 190.82Q665.46 190.83 665.46 190.83" opacity="0.85"></path><path d="M631.46 276.5C708.98 299.97 759.32 338.64 778.56 390.29 773.36 443.65 742.69 511.29 697.57 586.93 641.23 657.74 583.31 724.37 533.15 771.79 481.66 792.12 441.72 776.83 418.25 722.11 394.78 641.95 389.99 549.42 400.81 462.72 410.29 387.84 431.58 332.8 457.15 297.56 471.51 278.43 477.28 269.11 465.28 261.07 428.83 257.69 368.98 246.57 291.46 223.1 204.94 199.63 130.5 166.03 78.85 128.73 42.27 82.44 104.01 76.69 163.59 149.42 206.73 218.91 242.98 301.92 266.45 382.08 294.17 449.22 295.35 407.43 294.99 346.52 310.39 301.64 341.38 270.63 392.11 257.94 460.96 246.97 544.91 253.02 631.42 276.49Q631.46 276.5 631.46 276.5" opacity="0.38"></path><path d="M597.28 404.77C660.62 423.55 706.34 456.57 731.68 499.93 742.42 542.61 734.79 593.47 714.38 645.81 685.12 691.19 650.73 729.37 617.96 751.29 583.09 754.92 554.1 734.39 535.32 688.06 516.54 625.36 509.75 552.77 512.08 481.4 512.31 413.57 517.39 355.86 522.04 311.09 517.84 274.91 505.56 248 481.05 227.17 441.95 209.63 388.62 192.46 325.28 173.69 256.18 154.91 194.73 136.3 147.55 121.3 109.36 109.58 89.07 107.19 84.91 118.76 89.62 138.92 104.86 176.71 125.05 230.77 148.06 288.38 170.86 353.36 189.64 416.06 214.91 476.46 250.31 483.38 277.24 453.48 306.02 425.75 346.22 404.19 398.18 394.06 459.12 383.24 528.18 386 597.28 404.77Q597.28 404.77 597.28 404.77" opacity="0.81"></path><path d="M563.46 531.48C654.37 559.64 698.14 619.33 697.64 678.56 676.65 716.33 639.34 715.82 611.18 654.11 583.01 555.99 569.31 443.87 553.39 357.16 516.97 282.39 450.37 230.68 359.46 202.51 255.66 174.34 180.18 175.06 148.9 212.91 133.88 262.71 148.21 351.99 176.38 450.11 204.54 511.82 241.21 535.16 293.15 534.31 361.35 512 459.66 503.31 563.46 531.48Q563.46 531.48 563.46 531.48" opacity="0.66"></path><path d="M529.42 612.71C644.36 650.27 660.8 691.41 623.25 620.1 585.69 485.09 508.36 337.05 393.42 299.49 255.96 261.94 193.29 349.09 230.85 484.1 268.4 555.41 391.96 575.16 529.42 612.71Q529.42 612.71 529.42 612.71" opacity="0.47"></path></g></svg>