<svg xmlns="http://www.w3.org/2000/svg" version="1.1" xmlns:xlink="http://www.w3.org/1999/xlink" xmlns:svgjs="http://svgjs.dev/svgjs" viewBox="0 0 800 800"><defs><filter id="uuunion-blur" x="-100%" y="-100%" width="400%" height="400%" color-interpolation-filters="sRGB">
        <feGaussianBlur in="SourceGraphic" stdDeviation="7.5 0" result="blur"></feGaussianBlur>
        <feDropShadow stdDeviation="12.307692307692308" in="blur" dx="10" dy="10" flood-color="hsl(30, 100%, 40%)" flood-opacity="0.25" x="0%" y="0%" width="100%" height="100%"></feDropShadow>
      </filter><filter id="uuunion-blur2" x="-100%" y="-100%" width="400%" height="400%" color-interpolation-filters="sRGB">
        <feGaussianBlur in="SourceGraphic" stdDeviation="7.5 0" result="blur"></feGaussianBlur>
        <feDropShadow stdDeviation="12.307692307692308" in="blur" dx="-10" dy="-10" flood-color="hsl(30, 100%, 40%)" flood-opacity="0.25" x="0%" y="0%" width="100%" height="100%"></feDropShadow>
      </filter><linearGradient gradientTransform="rotate(0, 0.5, 0.5)" x1="50%" y1="0%" x2="50%" y2="100%" id="uuunion-grad"><stop stop-color="hsl(30, 100%, 70%)" offset="10%"></stop><stop stop-color="hsl(30, 100%, 40%)" offset="90%"></stop></linearGradient><linearGradient gradientTransform="rotate(135, 0.5, 0.5)" x1="50%" y1="0%" x2="50%" y2="100%" id="uuunion-grad2"><stop stop-color="hsl(30, 100%, 70%)" offset="25%"></stop><stop stop-color="hsl(30, 100%, 40%)" offset="100%"></stop></linearGradient><linearGradient gradientTransform="rotate(333, 0.5, 0.5)" x1="50%" y1="0%" x2="50%" y2="100%" id="uuunion-grad3"><stop stop-color="hsl(30, 100%, 70%)" offset="0%"></stop><stop stop-color="hsl(30, 100%, 40%)" offset="75%"></stop></linearGradient></defs><path d="M-79.49 -78.12Q-64.67 -76.02 -49.85 -74.17 -35.03 -72.7 -20.21 -71.7 -5.39 -71.23 9.42 -71.32 24.24 -71.97 39.06 -73.14 53.88 -74.75 68.7 -76.7 83.52 -78.85 98.34 -81.08 113.16 -83.25 127.98 -85.2 142.8 -86.82 157.62 -87.99 172.44 -88.66 187.26 -88.77 202.08 -88.31 216.9 -87.32 231.72 -85.86 246.54 -84.02 261.36 -81.92 276.18 -79.7 291 -77.5 305.82 -75.46 320.64 -73.71 335.46 -72.36 350.28 -71.51 365.1 -71.2 379.92 -71.45 394.74 -72.26 409.56 -73.56 424.38 -75.28 439.2 -77.3 454.02 -79.49 468.84 -81.72 483.66 -83.83 498.48 -85.7 513.3 -87.2 528.12 -88.24 542.94 -88.75 557.76 -88.69 572.58 -88.08 587.4 -86.95 602.22 -85.37 617.04 -83.44 631.86 -81.29 646.68 -79.06 661.5 -76.89 676.32 -74.92 691.14 -73.28 705.96 -72.06 720.78 -71.36 735.6 -71.21 750.42 -71.63 765.24 -72.58 780.06 -74.01 794.87 -75.83 809.69 -77.91 824.51 -80.13 839.33 -82.34 857.1 -77.86 856.01 -56.49 857.84 -41.65 865.09 -26.8 876 -11.96 887.88 2.87 897.83 17.71 903.42 32.55 903.27 47.4 897.42 62.24 887.31 77.08 875.4 91.92 864.62 106.77 857.61 121.61 856.07 136.45 860.39 151.29 869.52 166.13 881.2 180.98 892.59 195.82 900.9 210.66 904.09 225.5 901.38 240.34 893.43 255.19 882.2 270.03 870.42 284.87 860.99 299.71 856.21 314.55 857.26 329.4 863.87 344.24 874.43 359.08 886.35 373.92 896.72 388.76 902.99 403.61 903.63 418.45 898.49 433.29 888.81 448.13 876.98 462.97 865.89 477.82 858.25 492.66 855.93 507.5 859.51 522.34 868.1 537.18 879.6 552.03 891.2 566.87 900.06 581.71 904 596.55 902.07 611.4 894.73 626.24 883.78 641.08 871.91 655.92 862.01 670.76 856.52 685.61 856.78 700.45 862.72 715.29 872.89 730.13 884.8 744.97 895.53 759.82 902.46 774.66 903.89 789.5 899.47 804.34 890.28 819.18 878.57 834.03 867.21 848.87 858.98 863.71 844.33 868.39 829.67 873.82 815.01 879.64 800.36 885.48 785.7 890.98 771.04 895.76 756.39 899.54 741.73 902.05 727.07 903.15 712.42 902.76 697.76 900.91 683.1 897.71 668.45 893.37 653.79 888.18 639.13 882.45 624.48 876.57 609.82 870.91 595.16 865.83 580.51 861.67 565.85 858.68 551.19 857.06 536.54 856.92 521.88 858.26 507.22 861 492.57 864.95 477.91 869.88 463.25 875.46 448.6 881.33 433.94 887.11 419.28 892.43 404.63 896.96 389.97 900.39 375.31 902.52 360.66 903.19 346 902.38 331.34 900.12 316.69 896.57 302.03 891.96 287.37 886.58 272.71 880.77 258.06 874.91 243.4 869.38 228.74 864.54 214.09 860.68 199.43 858.07 184.77 856.87 170.12 857.15 155.46 858.9 140.8 862.01 126.15 866.28 111.49 871.43 96.83 877.12 82.18 883.01 67.52 888.69 52.86 893.82 38.21 898.06 23.55 901.14 8.89 902.86 -5.75 903.11 -20.41 901.87 -35.07 899.23 -49.72 895.35 -64.38 890.48 -79.04 884.94 -79.41 869.89 -79.93 854.85 -80.46 839.8 -80.88 824.75 -81.09 809.7 -81.02 794.65 -80.7 779.61 -80.21 764.56 -79.67 749.51 -79.21 734.46 -78.94 719.41 -78.92 704.37 -79.17 689.32 -79.63 674.27 -80.17 659.22 -80.67 644.17 -81 629.13 -81.09 614.08 -80.91 599.03 -80.51 583.98 -79.98 568.93 -79.45 553.89 -79.06 538.84 -78.9 523.79 -79 508.74 -79.35 493.69 -79.86 478.65 -80.4 463.6 -80.84 448.55 -81.07 433.5 -81.04 418.45 -80.76 403.41 -80.29 388.36 -79.74 373.31 -79.26 358.26 -78.96 343.21 -78.91 328.17 -79.13 313.12 -79.56 298.07 -80.1 283.02 -80.61 267.97 -80.97 252.93 -81.09 237.88 -80.95 222.83 -80.57 207.78 -80.05 192.73 -79.52 177.69 -79.1 162.64 -78.9 147.59 -78.97 132.54 -79.29 117.49 -79.79 102.45 -80.33 87.4 -80.79 72.35 -81.06 57.3 -81.06 42.26 -80.81 27.21 -80.35 12.16 -79.81 -2.88 -79.31 -17.93 -78.98 -32.97 -78.9 -48.02 -79.08 -63.07 -79.49 -78.12" fill="url(#uuunion-grad)"></path><path d="M-79.49 -78.12Q-79.08 -63.07 -78.9 -48.02 -78.98 -32.97 -79.31 -17.93 -79.81 -2.88 -80.35 12.16 -80.81 27.21 -81.06 42.26 -81.06 57.3 -80.79 72.35 -80.33 87.4 -79.79 102.45 -79.29 117.49 -78.97 132.54 -78.9 147.59 -79.1 162.64 -79.52 177.69 -80.05 192.73 -80.57 207.78 -80.95 222.83 -81.09 237.88 -80.97 252.93 -80.61 267.97 -80.1 283.02 -79.56 298.07 -79.13 313.12 -78.91 328.17 -78.96 343.21 -79.26 358.26 -79.74 373.31 -80.29 388.36 -80.76 403.41 -70.58 405.99 -60.39 408.41 -50.21 410.59 -40.03 412.46 -29.85 413.97 -19.67 415.08 -0.58 415.93 2.72 415.99 15.18 409.18 27.51 401.69 39.68 393.59 51.7 384.96 63.6 375.92 75.4 366.6 87.13 357.13 98.86 347.66 110.63 338.34 122.49 329.29 134.49 320.64 146.7 312.49 159.13 304.91 171.83 297.97 184.81 291.68 198.06 286.03 211.58 281 225.33 276.51 239.25 272.49 253.3 268.83 267.39 265.4 281.45 262.09 295.4 258.75 309.14 255.27 322.6 251.51 335.72 247.37 348.43 242.77 360.7 237.64 372.5 231.93 383.85 225.63 394.77 218.75 405.3 211.32 415.52 203.41 425.52 195.09 435.4 186.47 445.28 177.65 455.28 168.76 465.52 159.9 476.12 151.19 487.18 142.75 498.78 134.66 511 127 523.87 119.82 537.41 113.17 551.58 107.05 566.35 101.44 581.62 96.31 597.3 91.61 613.24 87.24 629.31 83.14 645.35 79.2 661.18 75.3 676.66 71.36 691.63 67.26 705.95 62.91 719.54 58.23 732.3 53.17 744.19 47.66 755.23 41.69 765.43 35.26 774.89 28.37 783.7 21.07 792.01 13.41 800 5.46 787.88 -12.18 779.77 -29.82 778.35 -47.46 784.09 -65.11 795.09 -82.75 807.71 -100.39 817.78 -118.04 821.97 -135.68 806.67 -134.16 791.38 -133.02 776.08 -132.31 760.78 -132.1 745.49 -132.38 730.19 -133.15 714.89 -134.35 699.59 -135.92 684.3 -137.74 669 -139.7 653.7 -141.68 638.41 -143.56 623.11 -145.21 607.81 -146.53 592.52 -147.43 577.22 -147.86 561.92 -147.79 546.62 -147.23 531.33 -146.21 516.03 -144.79 500.73 -143.07 485.44 -141.15 470.14 -139.16 454.84 -137.23 439.54 -135.46 424.25 -133.99 408.95 -132.9 393.65 -132.26 378.36 -132.11 363.06 -132.46 347.76 -133.28 332.46 -134.54 317.17 -136.14 301.87 -137.99 286.57 -139.96 271.28 -141.94 255.98 -143.79 240.68 -145.4 225.38 -146.67 210.09 -147.51 194.79 -147.88 179.49 -147.75 164.2 -147.12 148.9 -146.04 133.6 -144.58 118.3 -142.83 103.01 -140.89 87.71 -138.9 72.41 -136.98 57.12 -135.25 41.82 -133.82 26.52 -132.79 11.22 -132.21 -4.06 -132.12 -19.36 -132.54 -34.66 -133.43 -49.95 -134.73 -65.25 -136.37 -80.55 -138.24 -95.85 -140.22 -111.14 -142.19 -126.44 -144.02 -136.22 -132.03 -118.03 -113.34 -108.24 -104.63 -98.53 -95.84 -88.95 -86.99 -79.49 -78.12" fill="url(#uuunion-grad2)" filter="url(#uuunion-blur)"></path><path d="M815.26 408.73Q825.44 406.35 835.63 403.78 845.81 401.1 855.99 398.4 866.17 395.73 876.35 393.19 886.54 390.85 896.72 388.76 902.99 403.61 903.63 418.45 898.49 433.29 888.81 448.13 876.98 462.97 865.89 477.82 858.25 492.66 855.93 507.5 859.51 522.34 868.1 537.18 879.6 552.03 891.2 566.87 900.06 581.71 904 596.55 902.07 611.4 894.73 626.24 883.78 641.08 871.91 655.92 862.01 670.76 856.52 685.61 856.78 700.45 862.72 715.29 872.89 730.13 884.8 744.97 895.53 759.82 902.46 774.66 903.89 789.5 899.47 804.34 890.28 819.18 878.57 834.03 867.21 848.87 858.98 863.71 845.53 867.97 832.08 872.89 818.63 878.18 805.18 883.58 791.73 888.78 778.28 893.51 764.83 897.5 751.38 900.55 737.93 902.48 724.48 903.19 711.03 902.65 697.58 900.88 684.13 897.97 670.67 894.1 657.22 889.45 643.77 884.3 630.32 878.91 616.87 873.58 603.42 868.6 589.97 864.24 576.52 860.73 563.07 858.26 549.62 856.97 536.17 856.93 522.72 858.14 509.27 860.53 495.82 863.98 482.37 868.3 468.92 873.25 455.47 878.56 442.02 883.95 428.56 889.13 415.11 893.82 401.66 897.75 388.21 900.72 374.76 902.57 361.31 903.19 347.86 902.56 334.41 900.71 320.96 897.73 307.51 893.79 294.06 889.11 280.61 883.93 267.16 878.53 253.71 873.22 240.26 868.27 226.81 863.96 213.36 860.52 199.9 858.13 186.45 856.93 173 856.98 159.55 858.27 146.1 860.74 132.65 864.26 119.2 868.63 105.75 873.61 92.3 878.94 78.85 884.33 65.4 889.48 51.95 894.12 38.5 897.99 25.05 900.89 4.97 897.85 -1.37 882.89 -1.05 872.74 -0.73 862.59 -0.44 852.44 -0.21 842.29 0.2 827.07 0.99 822 13.78 815.16 26.48 807.38 39.06 798.72 51.49 789.31 63.74 779.28 75.83 768.82 87.74 758.12 99.52 747.36 111.17 736.77 122.76 726.52 134.33 716.8 145.93 707.76 157.64 699.5 169.5 692.13 181.57 685.66 193.91 680.12 206.53 675.46 219.48 671.6 232.74 668.42 246.31 665.79 260.16 663.53 274.24 661.47 288.49 659.42 302.82 657.18 317.17 654.59 331.43 651.47 345.51 647.71 359.33 643.19 372.79 637.84 385.84 631.63 398.42 624.57 410.49 616.7 422.06 608.1 433.14 598.89 443.76 589.2 453.99 579.18 463.92 569.02 473.66 558.89 483.31 548.95 493.02 539.38 502.92 530.32 513.12 521.88 523.76 514.16 534.93 507.21 546.73 501.07 559.21 495.71 572.39 491.09 586.29 487.13 600.85 483.71 616.02 480.72 631.69 477.98 647.74 475.36 664.02 472.68 680.37 469.79 696.62 466.53 712.59 462.78 728.13 458.44 743.07 453.42 757.28 447.68 770.67 441.2 783.18 434 794.76 426.13 810.35 413.2 815.26 408.73" fill="url(#uuunion-grad3)" filter="url(#uuunion-blur2)"></path></svg>